<?xml version="1.0" standalone="no"?>
<!DOCTYPE svg PUBLIC "-//W3C//DTD SVG 20010904//EN"
 "http://www.w3.org/TR/2001/REC-SVG-20010904/DTD/svg10.dtd">
<svg version="1.0" xmlns="http://www.w3.org/2000/svg"
 width="84.000000pt" height="77.000000pt" viewBox="0 0 84.000000 77.000000"
 preserveAspectRatio="xMidYMid meet">
<metadata>
Created by potrace 1.10, written by Peter Selinger 2001-2011
</metadata>
<g transform="translate(0.000000,77.000000) scale(0.100000,-0.100000)"
fill="#000000" stroke="none">
<path d="M73 719 l-63 -20 0 -78 0 -78 38 18 c53 26 148 42 207 34 27 -3 91
-20 140 -38 79 -28 103 -32 195 -32 94 0 113 3 173 29 l67 28 0 80 0 79 -27
-19 c-53 -37 -123 -55 -223 -55 -79 -1 -103 3 -145 22 -119 55 -249 66 -362
30z m282 -18 c33 -11 80 -27 105 -36 62 -23 213 -16 295 13 32 12 61 22 63 22
1 0 2 -26 0 -57 l-3 -58 -60 -25 c-50 -21 -76 -25 -160 -25 -88 0 -112 5 -200
34 -85 30 -114 35 -190 35 -62 -1 -102 -6 -129 -17 -22 -10 -41 -15 -44 -12
-11 11 -1 100 13 114 20 21 131 41 195 36 31 -2 83 -13 115 -24z"/>
<path d="M73 540 l-63 -21 0 -80 c0 -44 3 -79 8 -77 77 40 90 43 192 43 91 -1
117 -5 195 -32 152 -52 256 -52 371 1 l54 25 0 81 0 81 -27 -20 c-43 -34 -129
-55 -228 -54 -79 0 -100 4 -170 33 -105 44 -234 52 -332 20z m252 -22 c22 -5
59 -18 82 -29 24 -10 73 -24 111 -31 57 -10 79 -9 147 6 147 32 145 32 145 -1
0 -38 -21 -56 -90 -78 -99 -33 -198 -28 -315 15 -71 27 -121 35 -206 35 -60 0
-102 -5 -111 -12 -22 -19 -58 -5 -58 24 0 33 27 58 80 71 85 22 126 22 215 0z"/>
<path d="M115 366 c-27 -7 -62 -18 -77 -24 l-28 -12 0 -160 0 -160 410 0 410
0 0 180 0 181 -27 -20 c-71 -52 -250 -64 -354 -25 -140 52 -238 64 -334 40z
m245 -43 c25 -7 54 -18 65 -23 67 -32 208 -39 298 -15 93 24 87 32 87 -119 0
-113 -2 -135 -16 -140 -23 -9 -534 -7 -534 2 0 4 14 16 30 25 128 76 31 305
-98 233 -65 -35 -85 -147 -37 -205 14 -16 35 -33 46 -36 38 -12 7 -25 -59 -25
-116 0 -110 -7 -111 135 -1 134 8 160 59 171 14 2 41 9 60 14 43 11 150 3 210
-17z m-66 -84 c30 -35 34 -84 11 -129 -30 -58 -107 -51 -138 13 -49 98 59 197
127 116z"/>
</g>
</svg>
